<svg xmlns="http://www.w3.org/2000/svg" id="Camada_2" viewBox="0 0 234.66 112.89"><defs><style>.cls-1{fill:#522a10;}</style></defs><g id="Camada_1-2"><g><g><path class="cls-1" d="M0,25.73c0-3.15,.55-6.24,1.64-9.27,1.09-3.03,2.69-5.79,4.8-8.29,2.11-2.49,4.69-4.48,7.74-5.96S20.69,0,24.57,0c4.6,0,8.55,1.05,11.85,3.16,3.29,2.11,5.74,4.81,7.34,8.1l-5.16,3.34c-1.02-2.18-2.31-3.91-3.89-5.2-1.58-1.28-3.27-2.19-5.09-2.72-1.82-.53-3.6-.8-5.34-.8-2.86,0-5.39,.59-7.59,1.74-2.21,1.17-4.06,2.71-5.56,4.65-1.5,1.93-2.63,4.1-3.38,6.51-.75,2.4-1.13,4.81-1.13,7.23,0,2.67,.45,5.23,1.35,7.71,.9,2.47,2.14,4.65,3.74,6.54,1.6,1.89,3.49,3.39,5.67,4.5,2.18,1.12,4.55,1.67,7.12,1.67,1.79,0,3.63-.31,5.52-.95,1.89-.63,3.66-1.61,5.31-2.94,1.65-1.34,2.96-3.06,3.93-5.2l5.45,2.98c-1.07,2.57-2.71,4.75-4.94,6.54-2.23,1.79-4.71,3.15-7.45,4.07-2.74,.92-5.44,1.38-8.1,1.38-3.54,0-6.78-.76-9.74-2.29s-5.51-3.56-7.67-6.1-3.83-5.4-5.01-8.58c-1.19-3.17-1.78-6.38-1.78-9.63Z"></path><path class="cls-1" d="M74.21,52.32c-4.12,0-7.59-.71-10.39-2.14s-5.06-3.37-6.76-5.81c-1.7-2.45-2.93-5.22-3.71-8.32s-1.16-6.3-1.16-9.59V.37h6.54V26.46c0,2.52,.25,4.98,.76,7.38,.51,2.4,1.35,4.54,2.51,6.43,1.16,1.89,2.74,3.39,4.72,4.5,1.99,1.12,4.46,1.67,7.41,1.67s5.5-.57,7.48-1.71c1.99-1.14,3.56-2.66,4.73-4.58,1.16-1.91,2-4.06,2.51-6.43,.51-2.38,.76-4.8,.76-7.27V.37h6.54V26.46c0,3.49-.4,6.8-1.2,9.92-.8,3.13-2.07,5.88-3.81,8.25s-4.01,4.25-6.8,5.63c-2.79,1.38-6.17,2.07-10.14,2.07Z"></path><path class="cls-1" d="M107.78,51.96V.37h22.09c2.28,0,4.36,.47,6.25,1.41s3.53,2.21,4.94,3.78c1.4,1.57,2.49,3.34,3.27,5.31,.77,1.96,1.16,3.96,1.16,6,0,2.37-.45,4.63-1.35,6.76-.9,2.13-2.16,3.94-3.78,5.45s-3.52,2.54-5.7,3.13l12.5,19.77h-7.41l-11.77-18.53h-13.66v18.53h-6.54Zm6.54-24.34h15.63c1.79,0,3.35-.5,4.69-1.49,1.33-.99,2.37-2.31,3.13-3.96,.75-1.64,1.12-3.42,1.12-5.31s-.43-3.72-1.31-5.34c-.87-1.63-2.01-2.92-3.42-3.89-1.4-.96-2.96-1.45-4.65-1.45h-15.19V27.62Z"></path><path class="cls-1" d="M0,86.29c0-3.15,.55-6.24,1.64-9.27,1.09-3.03,2.69-5.79,4.8-8.29,2.11-2.49,4.69-4.48,7.74-5.96s6.51-2.22,10.39-2.22c4.6,0,8.55,1.05,11.85,3.16,3.29,2.11,5.74,4.81,7.34,8.1l-5.16,3.34c-1.02-2.18-2.31-3.91-3.89-5.2-1.58-1.28-3.27-2.19-5.09-2.72-1.82-.53-3.6-.8-5.34-.8-2.86,0-5.39,.59-7.59,1.74-2.21,1.17-4.06,2.71-5.56,4.65-1.5,1.93-2.63,4.1-3.38,6.51-.75,2.4-1.13,4.81-1.13,7.23,0,2.67,.45,5.23,1.35,7.71,.9,2.47,2.14,4.65,3.74,6.54,1.6,1.89,3.49,3.39,5.67,4.5,2.18,1.12,4.55,1.67,7.12,1.67,1.79,0,3.63-.31,5.52-.95,1.89-.63,3.66-1.61,5.31-2.94,1.65-1.34,2.96-3.06,3.93-5.2l5.45,2.98c-1.07,2.57-2.71,4.75-4.94,6.54-2.23,1.79-4.71,3.15-7.45,4.07-2.74,.92-5.44,1.38-8.1,1.38-3.54,0-6.78-.76-9.74-2.29s-5.51-3.56-7.67-6.1-3.83-5.4-5.01-8.58c-1.19-3.17-1.78-6.38-1.78-9.63Z"></path><path class="cls-1" d="M74.21,112.89c-4.12,0-7.59-.71-10.39-2.14s-5.06-3.37-6.76-5.81c-1.7-2.45-2.93-5.22-3.71-8.32s-1.16-6.3-1.16-9.59v-26.09h6.54v26.09c0,2.52,.25,4.98,.76,7.38,.51,2.4,1.35,4.54,2.51,6.43,1.16,1.89,2.74,3.39,4.72,4.5,1.99,1.12,4.46,1.67,7.41,1.67s5.5-.57,7.48-1.71c1.99-1.14,3.56-2.66,4.73-4.58,1.16-1.91,2-4.06,2.51-6.43,.51-2.38,.76-4.8,.76-7.27v-26.09h6.54v26.09c0,3.49-.4,6.8-1.2,9.92-.8,3.13-2.07,5.88-3.81,8.25s-4.01,4.25-6.8,5.63c-2.79,1.38-6.17,2.07-10.14,2.07Z"></path><path class="cls-1" d="M152.4,112.53v-39.39l-17.01,30.31h-4l-17.08-30.31v39.39h-6.54V60.93h6.91l18.68,33.5,18.75-33.5h6.83v51.6h-6.54Z"></path><path class="cls-1" d="M173.26,60.93l15.62,26.89,15.77-26.89h7.12l-19.62,32.77v18.83h-6.54v-18.97l-19.55-32.63h7.2Z"></path></g><g><path class="cls-1" d="M229.33,60.48c.27-.25,.48-.55,.62-.9,.15-.35,.22-.72,.22-1.12,0-.34-.06-.67-.19-.99-.13-.32-.31-.62-.54-.88-.23-.26-.5-.47-.82-.62s-.66-.23-1.03-.23h-3.65v8.52h1.08v-3.06h2.26l1.94,3.06h1.22l-2.06-3.26c.36-.1,.67-.27,.94-.52Zm-1.72-.24h-2.58v-3.54h2.51c.28,0,.54,.08,.77,.24,.23,.16,.42,.37,.56,.64,.14,.27,.22,.56,.22,.88s-.06,.6-.19,.88c-.12,.27-.3,.49-.52,.65-.22,.16-.48,.25-.77,.25Z"></path><path class="cls-1" d="M226.51,51.96c-4.49,0-8.15,3.66-8.15,8.15s3.65,8.15,8.15,8.15,8.15-3.65,8.15-8.15-3.65-8.15-8.15-8.15Zm0,15.29c-3.94,0-7.15-3.21-7.15-7.15s3.21-7.15,7.15-7.15,7.15,3.21,7.15,7.15-3.21,7.15-7.15,7.15Z"></path></g></g></g></svg>