<svg xmlns="http://www.w3.org/2000/svg" viewBox="0 0 2160 2541"><defs><style>.cls-1{fill:#fff;}</style></defs><g id="Camada_2" data-name="Camada 2"><g id="Camada_1-2" data-name="Camada 1"><path class="cls-1" d="M1377.73,653c-2.29-32.05-20.56-54.2-50.15-60.56a112.62,112.62,0,0,0-23.85-2.23c-63.32.12-126.65.1-190,.26a157.31,157.31,0,0,0-20.92,1.41c-27,3.7-46.59,21.73-52.54,48a96.12,96.12,0,0,0-2.34,21.81q.13,32.48,0,65c0,2.4,1.15,5.34-2.25,7.47-5.14-5.61-10.09-11.41-15.44-16.82-89.69-90.46-198.89-139-325.21-149-53.07-4.23-105.9,1.07-158,12.31C409.77,608,300.23,668.52,208.85,760.8,84.74,886.15,18.54,1038.29,3.71,1213.42a116.94,116.94,0,0,1-1.57,12.5A78.45,78.45,0,0,0,1,1236.62c0,.29-.05.59-.07.88s0,.72,0,1.08c0,3.67.82,7.39-.9,10.93v46c1.89,4.88.78,9.94.91,14.92a9.29,9.29,0,0,0,0,1.06c0,.22,0,.43,0,.65.32,3.75.71,7.5,1,11.26.14,2.31.23,4.63.21,6.95v0c0,1.4-.06,2.81-.16,4.21.08,16.28,1.17,32.51,2.74,48.66,4,41.57,14.18,81.9,27.25,121.39,33.64,101.63,87.21,190.83,164.52,265.81a638.3,638.3,0,0,0,188.9,126.92c75.52,33.25,155,50.84,237.27,54.59,50,2.29,99.86,0,149-11.68,88.22-20.88,165.58-61.78,231.64-124,2.93-2.76,5.38-8.59,10-6.37,3.55,1.72,1.91,7.37,1.63,11.21-3.38,46.24-9.26,92-23.32,136.51-32.41,102.58-97.76,173.69-200.28,208.23-79.64,26.84-161.77,31.29-244.81,21.45-78.25-9.28-152-33.54-222.61-68.08-39.86-19.51-77.75-42.45-115.36-65.92-19.69-12.28-41.21-15.25-63.26-7.5-19.26,6.76-31.8,21.4-40.84,39.1-28.32,55.49-57,110.8-84.46,166.7a216.78,216.78,0,0,0-9,20.06C-2,2306.41,8.05,2341.27,38,2363c27,19.6,56.11,35.92,85.55,51.53a1148.91,1148.91,0,0,0,213.32,87.37c77.41,22.86,156,38.18,237.09,38.1h15.84c.45,0,.89.07,1.34.08h0c5,.16,10-1,14.84.91h42c5.27-2.05,10.75-.58,16.12-1,.15,0,.3,0,.45,0h12.06c5.46-.37,11,.74,16.4-.56l1-.28c15.6-1.31,31.21-2.51,46.8-3.94,64.59-5.92,128-17.94,189.57-38.43,85.64-28.49,162.41-72,227.55-135,60.55-58.56,105.11-127.91,138.1-205,37.25-87.06,58-178.39,69.77-272,8.6-68.16,12.15-136.66,12.15-205.35V664C1378,660.3,1378,656.63,1377.73,653ZM748.36,1624.75C592.53,1652.89,442,1570,380.12,1423.39c-25.79-61.09-34.06-124.88-28.78-190.73,4-49.7,15.93-97.32,39-141.59,51.54-99,132.3-159.9,242.37-178.71,168.84-28.84,324.06,67.94,375.2,231.86,12.35,39.6,18.31,80.32,18.34,125-.21,68.19-14.39,133-48.67,192.44C926.15,1550.79,849.83,1606.43,748.36,1624.75Z"></path><path class="cls-1" d="M2160,68V1893.26c-1,.79-.86,2.07-1.2,3.14a2.34,2.34,0,0,1-.58,1c-8.15,24.23-26.38,37.55-49.48,45.47-7.64,2.63-15.66,3.07-23.69,3.07-68,0-136-.29-204,.11-37.36.23-66.43-25-74-56.88-1.87-7.83-2.23-15.8-2.23-23.81q0-54,0-107.94,0-606.61,0-1213.23c0-4.85.88-9.86-1-14.6-4.47-.41-7.18,2.45-10.22,4.24-39.9,23.5-80.31,46.19-119.47,70.88-46.49,29.32-113.35-.33-113.64-64.44-.19-41.64,0-83.28,0-124.92,0-23,.12-46,0-68.95-.21-32.59,13.77-56.11,42.28-72.67,92.75-53.89,185-108.6,277.48-163q82.7-48.66,165.35-97.37c8.38-5,17-9.12,26.44-11.55a2.46,2.46,0,0,1,.94-.6c1.42-.51,3.19.16,4.52-.65l.11-.08A2.52,2.52,0,0,0,2078,0h18c1.49,1.25,3.22,1.06,4.93,1q.54,0,1.08,0a6.57,6.57,0,0,1,1.39.2c31,.63,55.37,30.05,55.6,59.31a8.51,8.51,0,0,1,.05,1.43c0,.37,0,.73-.05,1.1C2158.89,64.74,2158.79,66.44,2160,68Z"></path></g></g></svg>